<svg id="Layer_1" data-name="Layer 1" xmlns="http://www.w3.org/2000/svg" viewBox="0 0 363.98 80.17"><defs><style>.cls-1{fill:#231f20;}.cls-2{fill:#414042;}</style></defs><g id="SvgjsG1014"><path class="cls-1" d="M327.93,282.25h-2.62v-4.57c0-1.83-1.95-3.27-3.78-3.27h-17c-1.82,0-2.74,1.44-2.74,3.27v4.57h-4.18a9.14,9.14,0,0,0-5.87-3.79L281.31,268a7.89,7.89,0,0,0-5.74-2.35h0a7.93,7.93,0,0,0-5.75,2.35l-10.44,10.45a9,9,0,0,0-5.88,3.79h0v-4.57c0-1.44-1.17-2-2.61-2H239.66c-1.43,0-3.13.52-3.13,2v4.57h-3.92v-2.62c0-.65-.91-1.3-1.57-1.3h-11c-.79,0-1.83.65-1.83,1.3v2.62a3.84,3.84,0,0,0-3.92,3.91V339.7a3.85,3.85,0,0,0,3.92,3.91h46.09a29.76,29.76,0,0,0,11.36,2.22,29.31,29.31,0,0,0,11.36-2.22h40.87a3.84,3.84,0,0,0,3.91-3.91V286.16A3.84,3.84,0,0,0,327.93,282.25Zm-22.2-3.92H321.4v3.92H305.73Zm-32.9-7.44a4,4,0,0,1,2.87-1.18,3.82,3.82,0,0,1,2.87,1.18l7.57,7.44H265.25Zm-16.19,15.27.65-2a5.34,5.34,0,0,1,4.18-1.95h28.72a5.34,5.34,0,0,1,4.18,1.95l.65,2,3.14,10.45h0a29.81,29.81,0,0,0-44.66,0h0Zm-12,10.45a2.27,2.27,0,0,1-2.22,1.56,2.41,2.41,0,0,1-2.22-1.56c0-.26-.13-.39-.13-.66a2.2,2.2,0,0,1,2.22-2.21,2.28,2.28,0,0,1,2.22,2.21C244.75,296.22,244.62,296.35,244.62,296.61Zm-2.22,20a4.14,4.14,0,0,1,3.66,2.22c.13,1.05.26,2,.39,3a4.18,4.18,0,1,1-4-5.23Zm-3.26-38.25h11.75v3.92H239.14Zm-20.89,7.83h34.21l-3.14,10.45h-2.08c0-.26.13-.39.13-.66a4.82,4.82,0,0,0-4.84-4.83A4.91,4.91,0,0,0,237.7,296a1.19,1.19,0,0,0,.13.66H218.25Zm0,53.54v-5.23h34.08a32.69,32.69,0,0,0,5.22,5.23Zm68,0a26.41,26.41,0,0,1-21.15,0,23.89,23.89,0,0,1-7.57-5.23,25.73,25.73,0,0,1,18.15-44,25.67,25.67,0,0,1,25.72,25.72,25.65,25.65,0,0,1-7.57,18.28A25.37,25.37,0,0,1,286.27,339.7Zm41.66,0H293.85a28.4,28.4,0,0,0,5.22-5.23h28.86Zm0-43.09H302.07l-3.13-10.45h29ZM245,320.76a2.62,2.62,0,1,1-2.62-2.61A2.62,2.62,0,0,1,245,320.76Zm53.27-4.57A22.59,22.59,0,1,1,275.7,293.6,22.52,22.52,0,0,1,298.29,316.19Zm-22.59-3.65a3.65,3.65,0,0,0-3.66,3.65,3.66,3.66,0,1,0,7.31,0A3.64,3.64,0,0,0,275.7,312.54Zm18.41,7a16.62,16.62,0,0,0,.52-4.44,17.78,17.78,0,0,0-17.76-17.76,24.52,24.52,0,0,0-4.44.52A22.81,22.81,0,0,1,294.11,319.59Z" transform="translate(-214.33 -265.66)"/></g><g id="SvgjsG1015"><path class="cls-2" d="M372.19,298a9.1,9.1,0,0,0-2-2.79,10,10,0,0,0-3.18-1.84,14.35,14.35,0,0,0-4.24-.61H352.33v4.18h10a6.89,6.89,0,0,1,4.19,1.23,4.17,4.17,0,0,1,1.56,3.57,4.48,4.48,0,0,1-1.51,3.52,6.63,6.63,0,0,1-4.24,1.28h-10v12.78H357v-8.54h5.25a14.94,14.94,0,0,0,4.18-.61,10.31,10.31,0,0,0,3.35-1.73,7.92,7.92,0,0,0,2.29-2.85,8.71,8.71,0,0,0,.83-3.9,9.28,9.28,0,0,0-.67-3.69Zm13.33,5.81V292.66h-4.69v26.67h4.69Zm12.77-11.11v11.11h-8.14v4.35h8.14v11.21h4.63V292.66Zm21,22.38a7,7,0,0,1-1.56-.51,8.35,8.35,0,0,1-2.74-2,8.57,8.57,0,0,1-1.78-2.9,10.39,10.39,0,0,1-.62-3.51v-.28a10.56,10.56,0,0,1,.62-3.57,8.43,8.43,0,0,1,1.78-2.85,7.5,7.5,0,0,1,2.68-2,6.52,6.52,0,0,1,1.62-.56v-4.18a13,13,0,0,0-3.46.95,12.78,12.78,0,0,0-4.19,2.84,13.61,13.61,0,0,0-3.73,9.38v.27a13.16,13.16,0,0,0,1,5.14,11.58,11.58,0,0,0,2.68,4.18,12.43,12.43,0,0,0,4.18,2.85,13.56,13.56,0,0,0,3.52.95V315Zm15.17-9v-.17a13.56,13.56,0,0,0-3.74-9.37,13.22,13.22,0,0,0-7.53-3.74V297l.67.22c.34.11.6.21.78.28a8.83,8.83,0,0,1,4.52,4.91,10.44,10.44,0,0,1,.62,3.52v.27a10.66,10.66,0,0,1-.62,3.58,8.53,8.53,0,0,1-1.78,2.84,8.13,8.13,0,0,1-4.19,2.46v4.24a13.32,13.32,0,0,0,7.53-3.8,13.11,13.11,0,0,0,2.74-4.24,13.4,13.4,0,0,0,1-5.13V306Zm18.35-8.93h8.42v-4.35H439.67v4.35Zm-4.69,4.35h4.69v17.86h-4.69ZM477.81,315a7.31,7.31,0,0,1-1.56-.51,8.41,8.41,0,0,1-2.73-2,8.58,8.58,0,0,1-1.79-2.9,10.38,10.38,0,0,1-.61-3.51v-.28a10.55,10.55,0,0,1,.61-3.57,8.6,8.6,0,0,1,1.79-2.85,7.42,7.42,0,0,1,2.68-2,6.61,6.61,0,0,1,1.61-.56v-4.18a13,13,0,0,0-3.45.95,12.67,12.67,0,0,0-4.19,2.84,13.68,13.68,0,0,0-3.74,9.38v.27a13.16,13.16,0,0,0,1,5.14,11.45,11.45,0,0,0,2.68,4.18,12.43,12.43,0,0,0,4.18,2.85,13.48,13.48,0,0,0,3.51.95V315ZM493,306v-.17a13.56,13.56,0,0,0-3.74-9.37,13.3,13.3,0,0,0-7.53-3.74V297l.67.22.78.28a8.56,8.56,0,0,1,2.73,2,8.68,8.68,0,0,1,1.79,2.9,10.43,10.43,0,0,1,.61,3.52v.27a10.65,10.65,0,0,1-.61,3.58,8.39,8.39,0,0,1-1.79,2.84,7.16,7.16,0,0,1-2.67,1.95,7.46,7.46,0,0,1-1.51.51v4.24a13.32,13.32,0,0,0,7.53-3.8,13.11,13.11,0,0,0,2.74-4.24,13.59,13.59,0,0,0,1-5.13V306Zm9.64-2.23V292.66h-4.69v26.67h4.69Zm12.78-11.11v11.11h-8.15v4.35h8.15v11.21H520V292.66Zm29.39,0v15.18c0,2.45-.6,4.28-1.79,5.47a5.67,5.67,0,0,1-2.62,1.56v4.35a9.8,9.8,0,0,0,2.34-.56,9.69,9.69,0,0,0,3.57-2.17,10.24,10.24,0,0,0,2.23-3.74,14.22,14.22,0,0,0,.84-5.13v-15Zm-13,.06v15.17a7.68,7.68,0,0,0,1.78,5.47,6,6,0,0,0,2.62,1.51v4.41a13.26,13.26,0,0,1-2.34-.56,9.28,9.28,0,0,1-3.51-2.23,8.52,8.52,0,0,1-2.29-3.69,14.34,14.34,0,0,1-.78-5.13V292.72ZM578,309.57a5.29,5.29,0,0,0-1.12-1.84,8.57,8.57,0,0,0-1.61-1.29,18.83,18.83,0,0,0-2.18-.94c.45-.27.93-.56,1.45-.9a6.81,6.81,0,0,0,2-2.9,6.9,6.9,0,0,0,.33-2.17,6,6,0,0,0-2.34-5,10,10,0,0,0-6.36-1.84H557.84v4.13h9.76a6.15,6.15,0,0,1,3.46.89,3,3,0,0,1,1.17,2.57,3,3,0,0,1-1.34,2.73,6.56,6.56,0,0,1-3.62.89h-9.43v3.91h10.43a7.16,7.16,0,0,1,4.07,1,3.16,3.16,0,0,1,1.34,2.67,3.12,3.12,0,0,1-1.34,2.74,6.54,6.54,0,0,1-3.73.95H557.84v4.13h10.71a15,15,0,0,0,4-.51,10.21,10.21,0,0,0,3.07-1.39,7,7,0,0,0,2-2.29,6.83,6.83,0,0,0,.67-3.12,7.73,7.73,0,0,0-.33-2.4Z" transform="translate(-214.33 -265.66)"/></g></svg>